<svg width="37" height="36" viewBox="0 0 37 36" fill="none" xmlns="http://www.w3.org/2000/svg">
<path d="M10.2778 0C4.61061 0 0 4.486 0 10V26C0 31.514 4.61061 36 10.2778 36H26.7222C32.3894 36 37 31.514 37 26V10C37 4.486 32.3894 0 26.7222 0H10.2778ZM10.2778 4H26.7222C30.1221 4 32.8889 6.692 32.8889 10V26C32.8889 29.308 30.1221 32 26.7222 32H10.2778C6.87789 32 4.11111 29.308 4.11111 26V10C4.11111 6.692 6.87789 4 10.2778 4ZM28.7778 6C28.2326 6 27.7098 6.21071 27.3243 6.58579C26.9388 6.96086 26.7222 7.46957 26.7222 8C26.7222 8.53043 26.9388 9.03914 27.3243 9.41421C27.7098 9.78929 28.2326 10 28.7778 10C29.3229 10 29.8458 9.78929 30.2313 9.41421C30.6168 9.03914 30.8333 8.53043 30.8333 8C30.8333 7.46957 30.6168 6.96086 30.2313 6.58579C29.8458 6.21071 29.3229 6 28.7778 6ZM18.5 8C12.8328 8 8.22222 12.486 8.22222 18C8.22222 23.514 12.8328 28 18.5 28C24.1672 28 28.7778 23.514 28.7778 18C28.7778 12.486 24.1672 8 18.5 8ZM18.5 12C21.8999 12 24.6667 14.692 24.6667 18C24.6667 21.308 21.8999 24 18.5 24C15.1001 24 12.3333 21.308 12.3333 18C12.3333 14.692 15.1001 12 18.5 12Z" fill="white"/>
</svg>
