<svg width="109" height="37" viewBox="0 0 109 37" fill="none" xmlns="http://www.w3.org/2000/svg">
<path d="M12.25 4.75C13.8833 4.75 15.3833 5.03333 16.75 5.6C18.1167 6.13333 19.3 6.9 20.3 7.9C21.3 8.86667 22.0833 10 22.65 11.3C23.2167 12.6 23.5 14 23.5 15.5C23.5 17 23.2167 18.4 22.65 19.7C22.0833 21 21.3 22.15 20.3 23.15C19.3 24.1167 18.1167 24.8833 16.75 25.45C15.3833 25.9833 13.8833 26.25 12.25 26.25H7.25V36.25H0V4.75H12.25ZM12.25 19.25C13.3833 19.25 14.3333 18.8833 15.1 18.15C15.8667 17.3833 16.25 16.5 16.25 15.5C16.25 14.5 15.8667 13.6333 15.1 12.9C14.3333 12.1333 13.3833 11.75 12.25 11.75H7.25V19.25H12.25Z" fill="white"/>
<path d="M35.2285 36.25H27.9785V4.75H35.2285V36.25Z" fill="white"/>
<path d="M48.9609 29.25H63.2109V36.25H39.7109V30.25L53.2109 11.75H40.2109V4.75H62.4609V10.75L48.9609 29.25Z" fill="white"/>
<path d="M77.4746 11.5V15.25H65.9746V12.25L70.4746 8.25C70.9413 7.85 71.3579 7.46667 71.7246 7.1C72.0246 6.76667 72.3079 6.41667 72.5746 6.05C72.8413 5.68333 72.9746 5.33333 72.9746 5C72.9746 4.16667 72.4746 3.75 71.4746 3.75C70.9746 3.75 70.5579 3.91667 70.2246 4.25C69.8913 4.58333 69.7246 5 69.7246 5.5L65.7246 5.25C65.9913 3.61667 66.6079 2.33333 67.5746 1.4C68.5746 0.466667 69.9579 0 71.7246 0C73.7246 0 75.2246 0.466667 76.2246 1.4C77.2246 2.3 77.7246 3.5 77.7246 5C77.7246 5.5 77.6413 5.96667 77.4746 6.4C77.3079 6.8 77.1413 7.13333 76.9746 7.4C76.7413 7.73333 76.4913 8.01667 76.2246 8.25L72.4746 11.5H77.4746Z" fill="white"/>
<path d="M96.9883 24L93.4883 13.5L89.9883 24H96.9883ZM87.9883 30.25L85.9883 36.25H78.4883L89.7383 4.75H97.2383L108.488 36.25H100.988L98.9883 30.25H87.9883Z" fill="white"/>
</svg>
